<svg width="512" height="512" xmlns="http://www.w3.org/2000/svg">
  <rect fill="none" stroke="#666666" x="7.5" y="79.5" width="496" height="350" stroke-width="5" rx="10"/>
  <line fill="none" stroke-width="20" x1="9" y1="90" x2="503" y2="90" stroke="#666666"/>
  <ellipse fill="#999999" cx="208" cy="36" rx="0.5" ry="0.5"/>
  <rect fill="#ff0026" stroke-width="20" x="469" y="81" width="14" height="14" rx="5"/>
  <rect fill="#ffffff" stroke-width="20" x="412" y="81" width="14" height="14" rx="5"/>
  <rect fill="#BBBBBB" stroke-width="20" x="442" y="81" width="14" height="14" rx="5"/>
  <rect fill="#5b9bea" stroke-width="20" x="139" y="150" width="202" height="244" rx="10" stroke="null"/>
  <line fill="none" stroke="#BBBBBB" stroke-width="10" x1="360" y1="140" x2="435" y2="140" id="svg_10"/>
  <line fill="none" stroke="#BBBBBB" stroke-width="10" x1="360" y1="171" x2="467" y2="171" id="svg_11"/>
  <line fill="none" stroke="#BBBBBB" stroke-width="10" x1="360" y1="202" x2="427" y2="202" id="svg_13"/>
  <line fill="none" stroke-width="10" x1="20" y1="160" x2="102" y2="160" stroke="#BBBBBB"/>
  <line fill="none" stroke-width="10" x1="40" y1="180" x2="117" y2="180" stroke="#BBBBBB"/>
  <line fill="none" stroke-width="2" x1="127" y1="98" x2="125" y2="428" stroke="#BBBBBB"/>
  <line fill="none" stroke-width="10" x1="40" y1="200" x2="116" y2="200" stroke="#BBBBBB"/>
  <line fill="none" stroke-width="10" x1="40" y1="220" x2="115" y2="220" stroke="#BBBBBB"/>
  <line fill="none" stroke-width="10" x1="50" y1="300" x2="114" y2="300" stroke="#BBBBBB"/>
  <line fill="none" stroke-width="10" x1="50" y1="240" x2="113" y2="240" stroke="#BBBBBB"/>
  <line fill="none" stroke-width="10" x1="49" y1="260" x2="113" y2="260" stroke="#BBBBBB"/>
  <line fill="none" stroke-width="10" x1="50" y1="280" x2="112" y2="280" stroke="#BBBBBB"/>
  <line fill="none" stroke-width="10" x1="50" y1="320" x2="114" y2="320" stroke="#BBBBBB"/>
  <line fill="none" stroke-width="10" x1="29" y1="340" x2="108" y2="340" stroke="#BBBBBB"/>
  <line fill="none" stroke-width="10" x1="30" y1="360" x2="109" y2="360" stroke="#BBBBBB"/>
  <line fill="none" stroke-width="10" x1="30" y1="380" x2="107" y2="380" stroke="#BBBBBB"/>
  <path fill="#BBBBBB" opacity="undefined" d="m143,119c0,-1 1,-3.4 2,-3.4l83,0c1,0 2,1 2,3.4l0,10.2c0,1 -1,3.4 -2,3.4l-83,0c-1,0 -2,-1 -2,-3.4l0,-10.2z" stroke="#BBBBBB"/>
  <path fill="#B8D078" stroke-width="20" opacity="NaN" d="m353,270c0,0 60,106 61,106c1,0 64,-108 63,-109c1,0 -31,0 -32,0c1,0 -36,77 -37,77c1,0 -54,-74 -54,-74l0,0z" stroke="null"/>
  <text fill="#8CD79F" stroke="#62612C" stroke-width="0" x="438" y="376" font-size="70" font-family="Noto Sans JP" text-anchor="start" xml:space="preserve" font-style="italic">5</text>
</svg>