<svg xmlns="http://www.w3.org/2000/svg" viewBox="0 0 1024 1024">
    <style>
        svg>[id]{
            display:none;
        }
        svg>[id]:target{
            display:inline;
            transform: scale(1.3);
            transform-origin: center;
        }
    </style>
    <g id="b">
        <path
            d="M860.12 566.32c0 139.05-112.73 251.76-251.76 251.76-94.38 0-176.61-51.92-219.72-128.75-20.08-35.79-31.67-77-32.03-120.87 1.18 84 69.01 151.88 153.01 153.11 0.77 0.01 1.54 0.01 2.31 0.01 0.73 0 1.48 0 2.21-0.01 138.02-1.14 249.55-113.39 249.55-251.68 0-44.77-11.69-86.79-32.18-123.21-41.78-74.28-120.17-125.22-210.71-128.33 185.26 4.59 334.58 153.89 339.17 339.17 0.04 1.01 0.06 2.01 0.07 3.02 0.02 0.97 0.05 1.93 0.05 2.88 0.03 0.97 0.03 1.93 0.03 2.9z"
            fill="#6F94F4"></path>
        <path
            d="M731.51 346.68c20.49 36.42 32.18 78.44 32.18 123.21 0 138.29-111.53 250.53-249.55 251.68 84.77-1.18 153.12-70.27 153.12-155.32 0-85.76-69.51-155.3-155.26-155.34h-0.07c-28.33-0.02-53.92-12.45-71.58-32.1-15.34-17.07-24.7-39.62-24.7-64.25 0-26.49 10.84-50.59 28.3-68.06 17.47-17.46 41.55-28.3 68.06-28.3 1.27 0 2.54 0.01 3.8 0.04 0.66 0.01 1.32 0.02 1.98 0.04 1.01 0.01 2.01 0.04 3.02 0.07 90.53 3.11 168.92 54.05 210.7 128.33z"
            fill="#97B4FF"></path>
        <path
            d="M356.6 568.46c0.36 43.88 11.95 85.08 32.03 120.87 43.12 76.83 125.35 128.75 219.72 128.75 139.04 0 251.76-112.72 251.76-251.76 0 192.26-155.86 348.12-348.12 348.12-55.85 0-108.64-13.15-155.41-36.53-114.26-57.1-192.71-175.18-192.71-311.59v-360.4c0-52.99 43.35-96.35 96.35-96.35 26.49 0 50.58 10.84 68.04 28.31 17.47 17.46 28.31 41.55 28.31 68.04v360.73c0.02 0.6 0.03 1.21 0.03 1.81z"
            fill="#4770DC"></path>
    </g><g id="a">
        <path
            d="M583.64 699.51c15.35 17.08 24.72 39.64 24.72 64.25 0 26.49-10.84 50.59-28.31 68.04-17.46 17.47-41.55 28.31-68.04 28.31-1.27 0-2.55-0.01-3.82-0.04-0.65-0.01-1.31-0.02-1.96-0.04-1.01-0.01-2.01-0.04-3.02-0.07-90.57-3.11-169-54.07-210.79-128.38-20.49-36.43-32.18-78.46-32.18-123.23 0-138.29 111.48-250.52 249.48-251.75-84.78 1.22-153.12 70.32-153.12 155.4 0 85.82 69.57 155.41 155.41 155.41 26.49 0 50.59 10.84 68.04 28.3 1.23 1.23 2.43 2.5 3.59 3.8z"
            fill="#4770DC"></path>
        <path
            d="M635.25 388.78c20.13 35.81 31.77 77.02 32.15 120.93-1.22-84.02-69.1-151.89-153.11-153.11-0.77-0.01-1.53-0.01-2.29-0.01s-1.53 0-2.29 0.01c-137.99 1.23-249.48 113.46-249.48 251.75 0 44.77 11.69 86.81 32.18 123.23C334.2 805.9 412.62 856.86 503.2 859.97c-185.26-4.59-334.58-153.91-339.17-339.17-0.04-1.01-0.06-2.01-0.07-3.02-0.01-0.66-0.02-1.32-0.04-1.96-0.02-1.27-0.04-2.55-0.04-3.82 0-139.05 112.72-251.76 251.76-251.76 94.28 0 176.46 51.82 219.61 128.54z"
            fill="#6F94F4"></path>
        <path
            d="M860.12 512v251.76c0 52.99-43.37 96.35-96.35 96.35-33.99 0-64-17.83-81.17-44.6a95.702 95.702 0 0 1-7.87-15.06 95.367 95.367 0 0 1-7.31-36.7V512c0-0.76 0-1.53-0.01-2.29-0.39-43.91-12.02-85.13-32.15-120.93-43.14-76.72-125.32-128.54-219.6-128.54-139.05 0-251.76 112.72-251.76 251.76 0-192.26 155.86-348.12 348.12-348.12 55.85 0 108.64 13.15 155.41 36.53C781.67 257.51 860.12 375.59 860.12 512z"
            fill="#97B4FF"></path>
    </g><g id="c">
        <path
            d="M860.12 512c0 1.27-0.01 2.55-0.04 3.82-0.01 0.65-0.02 1.31-0.04 1.96-0.01 1.01-0.04 2.01-0.07 3.02-3.11 90.57-54.07 169-128.38 210.79-36.43 20.49-78.46 32.18-123.23 32.18-138.28 0-250.52-111.48-251.75-249.48 1.23 84.77 70.33 153.12 155.4 153.12 85.84 0 155.41-69.59 155.41-155.41 0-26.49 10.84-50.59 28.31-68.06 1.23-1.23 2.5-2.42 3.79-3.59 17.07-15.34 39.62-24.7 64.25-24.7 26.49 0 50.59 10.84 68.06 28.3 17.45 17.46 28.29 41.56 28.29 68.05z"
            fill="#97B4FF"></path>
        <path
            d="M509.71 356.6c-84.01 1.22-151.89 69.09-153.11 153.11-0.01 0.76-0.01 1.53-0.01 2.29s0 1.52 0.01 2.29c1.23 137.99 113.47 249.48 251.75 249.48 44.77 0 86.81-11.69 123.23-32.18C805.9 689.8 856.86 611.38 859.97 520.8c-4.59 185.26-153.91 334.58-339.17 339.17-1.01 0.04-2.01 0.06-3.02 0.07-0.66 0.01-1.32 0.02-1.96 0.04-1.27 0.02-2.55 0.04-3.82 0.04-139.04 0-251.76-112.72-251.76-251.76 0-94.27 51.82-176.43 128.52-219.58 35.8-20.14 77.04-31.79 120.95-32.18z"
            fill="#6F94F4"></path>
        <path
            d="M260.24 608.35c0 139.05 112.73 251.76 251.76 251.76-192.26 0-348.12-155.86-348.12-348.12S319.74 163.88 512 163.88c26.49 0 50.59 10.84 68.06 28.3 17.46 17.47 28.3 41.56 28.3 68.06s-10.84 50.59-28.3 68.04c-17.47 17.47-41.56 28.31-68.06 28.31-0.76 0-1.52 0-2.29 0.01-43.91 0.39-85.15 12.03-120.96 32.18-76.69 43.14-128.51 125.31-128.51 219.57z"
            fill="#4770DC"></path>
    </g><g id="d">
        <path
            d="M163.88 566.32c0 139.05 112.73 251.76 251.76 251.76 94.38 0 176.61-51.92 219.72-128.75 20.08-35.79 31.67-77 32.03-120.87-1.18 84-69.01 151.88-153.01 153.11-0.77 0.01-1.54 0.01-2.31 0.01-0.73 0-1.48 0-2.21-0.01-138.02-1.14-249.55-113.39-249.55-251.68 0-44.77 11.69-86.79 32.18-123.21 41.79-74.29 120.18-125.22 210.71-128.33-185.26 4.59-334.58 153.89-339.17 339.17-0.04 1.01-0.06 2.01-0.07 3.02-0.02 0.97-0.05 1.93-0.05 2.88-0.03 0.97-0.03 1.93-0.03 2.9z"
            fill="#6F94F4"></path>
        <path
            d="M292.49 346.68c-20.49 36.42-32.18 78.44-32.18 123.21 0 138.29 111.53 250.53 249.55 251.68-84.77-1.18-153.12-70.27-153.12-155.32 0-85.76 69.51-155.3 155.26-155.34h0.07c28.33-0.02 53.92-12.45 71.58-32.1 15.34-17.07 24.7-39.62 24.7-64.25 0-26.49-10.84-50.59-28.3-68.06-17.47-17.46-41.55-28.3-68.06-28.3-1.27 0-2.54 0.01-3.8 0.04-0.66 0.01-1.32 0.02-1.98 0.04-1.01 0.01-2.01 0.04-3.02 0.07-90.53 3.11-168.92 54.05-210.7 128.33z"
            fill="#97B4FF"></path>
        <path
            d="M667.4 568.46c-0.36 43.88-11.95 85.08-32.03 120.87-43.12 76.83-125.35 128.75-219.72 128.75-139.04 0-251.76-112.72-251.76-251.76 0 192.26 155.86 348.12 348.12 348.12 55.85 0 108.64-13.15 155.41-36.53 114.26-57.1 192.71-175.18 192.71-311.59v-360.4c0-52.99-43.35-96.35-96.35-96.35-26.49 0-50.58 10.84-68.04 28.31-17.47 17.46-28.31 41.55-28.31 68.04v360.73c-0.02 0.6-0.03 1.21-0.03 1.81z"
            fill="#4770DC"></path>
    </g><g id="e">
        <path
            d="M260.24 608.35c0-138.29 111.48-250.52 249.48-251.75-84.78 1.22-153.12 70.32-153.12 155.4 0 85.84 69.57 155.41 155.41 155.41 26.49 0 50.59 10.84 68.04 28.3 1.23 1.23 2.44 2.5 3.59 3.8 15.35 17.08 24.72 39.64 24.72 64.25 0 26.49-10.84 50.59-28.31 68.04-17.46 17.47-41.55 28.31-68.04 28.31-1.27 0-2.55-0.01-3.82-0.04-0.65-0.01-1.31-0.02-1.96-0.04-0.29 0-0.57 0-0.86-0.02-0.97-0.02-1.95-0.05-2.92-0.09-0.26-0.01-0.52-0.02-0.77-0.04-1.34-0.05-2.69-0.11-4.03-0.19-1.42-0.09-2.83-0.17-4.25-0.27a290.7 290.7 0 0 1-8.27-0.74c-1.69-0.17-3.37-0.37-5.04-0.6-0.99-0.12-1.98-0.25-2.97-0.39-1.82-0.25-3.64-0.52-5.45-0.82-1.14-0.17-2.28-0.37-3.41-0.57-1.01-0.17-2.01-0.36-3.02-0.55-2-0.37-4-0.77-5.99-1.19-0.99-0.21-1.99-0.44-2.97-0.66-1.44-0.32-2.88-0.66-4.31-1.02-1.34-0.32-2.69-0.66-4.02-1.02-2.7-0.7-5.36-1.44-8.01-2.24-1.96-0.58-3.92-1.19-5.86-1.83-1.94-0.63-3.88-1.29-5.79-1.96-1.28-0.45-2.56-0.91-3.84-1.39-1.28-0.47-2.56-0.96-3.83-1.44-1.27-0.5-2.52-1.01-3.78-1.52-1.04-0.42-2.1-0.86-3.13-1.31-1.45-0.61-2.91-1.24-4.35-1.9-1.23-0.53-2.45-1.09-3.67-1.67-0.01 0-0.04-0.01-0.05-0.01-1.22-0.57-2.44-1.16-3.64-1.75-1.22-0.58-2.42-1.19-3.63-1.8-0.93-0.47-1.85-0.94-2.77-1.43-1.49-0.77-2.98-1.57-4.45-2.37-1.17-0.63-2.32-1.28-3.47-1.94-1.17-0.66-2.34-1.34-3.49-2.03-1.16-0.67-2.31-1.37-3.46-2.08-2.26-1.38-4.51-2.8-6.73-4.26-0.05-0.02-0.1-0.06-0.15-0.1-0.97-0.63-1.94-1.28-2.9-1.93l-0.71-0.48c-0.96-0.66-1.91-1.32-2.87-2a0.666 0.666 0 0 1-0.2-0.14c-1.01-0.7-2-1.4-3-2.14-0.1-0.06-0.2-0.14-0.3-0.22-0.93-0.67-1.85-1.36-2.77-2.05-0.24-0.16-0.47-0.34-0.71-0.52-0.87-0.66-1.73-1.32-2.59-1.99-0.16-0.11-0.31-0.22-0.46-0.36-0.98-0.76-1.96-1.53-2.93-2.31-0.98-0.78-1.96-1.59-2.93-2.4-0.82-0.66-1.62-1.34-2.42-2.03-0.83-0.71-1.65-1.42-2.47-2.14a489.564 489.564 0 0 1-2.41-2.11c-0.47-0.44-0.94-0.86-1.42-1.28-0.4-0.36-0.8-0.73-1.19-1.09-0.77-0.71-1.53-1.4-2.28-2.13-0.9-0.83-1.78-1.68-2.65-2.54-0.72-0.68-1.43-1.38-2.13-2.09-0.86-0.85-1.7-1.7-2.54-2.56-0.17-0.16-0.34-0.34-0.5-0.51-0.78-0.8-1.55-1.6-2.31-2.41-0.16-0.16-0.32-0.34-0.48-0.51-0.72-0.76-1.43-1.52-2.13-2.29-0.25-0.26-0.48-0.52-0.72-0.78-0.62-0.67-1.24-1.36-1.85-2.05-0.63-0.71-1.27-1.43-1.89-2.16-0.72-0.81-1.43-1.63-2.13-2.46a251.84 251.84 0 0 1-27.55-39.57c-20.49-36.42-32.17-78.46-32.17-123.23z"
            fill="#97B4FF"></path>
        <path
            d="M502.81 859.96c-185.09-4.79-334.19-154.02-338.78-339.15-0.04-1.01-0.06-2.01-0.07-3.02-0.01-0.66-0.02-1.32-0.04-1.96-0.02-1.27-0.04-2.55-0.04-3.82 0-139.05 112.72-251.76 251.76-251.76 94.28 0 176.46 51.82 219.6 128.54 4.86 8.65 9.24 17.62 13.07 26.87h-14.36c-28.04-35.42-71.17-58.35-119.67-59.04-0.77-0.01-1.53-0.01-2.29-0.01s-1.53 0-2.29 0.01c-137.99 1.23-249.48 113.46-249.48 251.75 0 44.77 11.69 86.81 32.18 123.23a251.376 251.376 0 0 0 27.55 39.57c0.7 0.83 1.4 1.65 2.13 2.46 0.62 0.73 1.26 1.45 1.89 2.16 0.61 0.7 1.23 1.38 1.85 2.05 0.24 0.26 0.47 0.52 0.72 0.78 0.7 0.77 1.4 1.53 2.13 2.29 0.16 0.17 0.32 0.35 0.48 0.51 0.76 0.81 1.53 1.62 2.31 2.41 0.16 0.17 0.32 0.35 0.5 0.51 0.83 0.87 1.68 1.72 2.54 2.56 0.7 0.71 1.4 1.4 2.13 2.09 0.87 0.86 1.75 1.7 2.65 2.54 0.75 0.72 1.5 1.42 2.28 2.13 0.4 0.36 0.8 0.73 1.19 1.09 0.47 0.42 0.94 0.85 1.42 1.28 0.77 0.68 1.55 1.37 2.34 2.05 0.02 0.02 0.05 0.05 0.07 0.06 0.82 0.72 1.64 1.44 2.47 2.14 0.81 0.68 1.6 1.37 2.42 2.03 0.97 0.82 1.95 1.62 2.93 2.4 0.97 0.78 1.95 1.57 2.93 2.31 0.15 0.14 0.3 0.25 0.46 0.36 0.86 0.67 1.72 1.34 2.59 1.99 0.24 0.19 0.47 0.36 0.71 0.52a85.8 85.8 0 0 0 2.77 2.05c0.1 0.09 0.2 0.16 0.3 0.22 0.99 0.73 1.99 1.44 3 2.14 0.07 0.06 0.14 0.11 0.2 0.14 0.96 0.68 1.9 1.36 2.87 2l0.71 0.48c0.96 0.66 1.93 1.31 2.9 1.93 0.05 0.04 0.1 0.07 0.15 0.1 2.21 1.47 4.46 2.88 6.73 4.26 1.14 0.71 2.3 1.4 3.46 2.08 1.16 0.7 2.31 1.37 3.49 2.03 1.16 0.66 2.3 1.31 3.47 1.94 1.47 0.81 2.96 1.6 4.45 2.37 0.92 0.5 1.84 0.97 2.77 1.43 1.21 0.62 2.41 1.22 3.63 1.8 1.21 0.6 2.42 1.18 3.64 1.75 0.01 0 0.04 0.01 0.05 0.01 1.22 0.57 2.44 1.13 3.67 1.67 1.44 0.66 2.9 1.29 4.35 1.9 1.03 0.45 2.09 0.88 3.13 1.31 1.26 0.52 2.51 1.02 3.78 1.52s2.55 0.98 3.83 1.44c1.28 0.48 2.56 0.94 3.84 1.39 1.91 0.68 3.85 1.34 5.79 1.96 1.94 0.63 3.89 1.24 5.86 1.83 2.65 0.8 5.31 1.54 8.01 2.24 1.33 0.36 2.67 0.7 4.02 1.02 1.43 0.36 2.87 0.7 4.31 1.02 0.98 0.22 1.98 0.45 2.97 0.66 1.99 0.42 3.99 0.82 5.99 1.19 1.01 0.19 2.01 0.37 3.02 0.55 1.13 0.2 2.26 0.4 3.41 0.57 1.8 0.3 3.63 0.57 5.45 0.82 0.99 0.14 1.98 0.26 2.97 0.39 1.67 0.22 3.34 0.42 5.04 0.6 1.33 0.14 2.67 0.27 4.03 0.39 1.4 0.14 2.82 0.25 4.24 0.35 1.42 0.11 2.83 0.2 4.25 0.27 0.75 0.05 1.49 0.09 2.25 0.12 0.85 0.04 1.69 0.07 2.55 0.1 0.12 0.01 0.25 0.03 0.37 0.03z"
            fill="#6F94F4"></path>
        <path
            d="M860.12 512c0 26.49-10.84 50.59-28.31 68.04-17.46 17.47-41.55 28.31-68.04 28.31H512c-53 0-96.35-43.37-96.35-96.35 0-53 43.35-96.35 96.35-96.35h136.31c-3.83-9.25-8.21-18.21-13.07-26.87-43.14-76.72-125.32-128.54-219.6-128.54-139.05 0-251.76 112.72-251.76 251.76 0-192.26 155.86-348.12 348.12-348.12S860.12 319.74 860.12 512z"
            fill="#4770DC"></path>
    </g><g id="f">
        <path
            d="M705.94 119.87c17.46 17.47 28.3 41.56 28.3 68.06s-10.84 50.59-28.3 68.04c-17.47 17.47-41.55 28.31-68.06 28.31-77.92 0-142.44 57.34-153.68 132.12-1.13 7.6-1.73 15.37-1.73 23.29v-58.17c0-71.85 21.77-138.61 59.07-194.05a349.612 349.612 0 0 1 96.33-95.89h0.01c26.51-0.01 50.59 10.84 68.06 28.29z"
            fill="#4770DC"></path>
        <path
            d="M734.24 556.77c0 1.67-0.04 3.33-0.12 4.97-1.27 24.54-11.81 46.71-28.17 63.08-17.47 17.46-41.55 28.3-68.06 28.3H482.47v182.95c0 52.99-43.35 96.35-96.35 96.35s-96.35-43.37-96.35-96.35V460.42h0.61c-0.41-6.85-0.61-13.76-0.61-20.73 0-136.41 78.45-254.49 192.71-311.59 46.77-23.37 99.55-36.53 155.4-36.53-38.04 25.34-70.83 57.96-96.33 95.89-37.3 55.44-59.07 122.2-59.07 194.05v78.9h155.41c52.99 0.01 96.35 43.36 96.35 96.36z"
            fill="#6F94F4"></path>
    </g><g id="h">
        <path
            d="M768.9 733.43c8.8 30.6 13.51 62.92 13.51 96.35v59.06c0 22.42-7.76 43.1-20.73 59.53-17.68 22.39-45.06 36.83-75.63 36.83-33.99 0-64.02-17.83-81.17-44.6-9.6-14.97-15.18-32.75-15.18-51.76V637.08c0-85.15-68.5-154.32-153.4-155.4 55.11 0.31 107.18 13.43 153.4 36.52 86.26 43.1 152.11 120.97 179.2 215.23z"
            fill="#4770DC"></path>
        <path
            d="M782.41 637.08v192.71c0-33.43-4.71-65.76-13.51-96.35-27.09-94.27-92.94-172.13-179.19-215.24-46.21-23.09-98.28-36.2-153.4-36.52-0.67-0.01-1.34-0.01-2.01-0.01v407.17c0 41.49-26.57 77.07-63.54 90.56a95.496 95.496 0 0 1-32.81 5.79c-36.56 0-68.53-20.63-84.84-50.83a95.488 95.488 0 0 1-11.51-45.53V135.16c0-52.99 43.35-96.35 96.35-96.35 26.49 0 50.58 10.84 68.04 28.31 17.47 17.46 28.31 41.55 28.31 68.04v153.81c55.85 0 108.64 13.15 155.41 36.53 114.25 57.09 192.7 175.17 192.7 311.58z"
            fill="#6F94F4"></path>
    </g><g id="i">
        <path
            d="M415.65 673.55c0 53 43.35 96.35 96.35 96.35 26.49 0 50.59 10.84 68.04 28.31 17.47 17.47 28.31 41.55 28.31 68.04 0 26.51-10.84 50.59-28.31 68.06-17.46 17.46-41.55 28.3-68.04 28.3-53 0-96.35-43.35-96.35-96.35V673.55z"
            fill="#4770DC"></path>
        <path
            d="M608.35 446.8v419.46c0-26.49-10.84-50.58-28.31-68.04-17.46-17.47-41.55-28.31-68.04-28.31-53 0-96.35-43.35-96.35-96.35V446.8c0-52.99 43.35-96.35 96.35-96.35 26.49 0 50.59 10.84 68.04 28.31 17.47 17.47 28.31 41.55 28.31 68.04zM608.35 157.74c0 4.49-0.31 8.91-0.92 13.24-2.95 21.24-12.88 40.31-27.39 54.82-17.46 17.46-41.55 28.3-68.04 28.3-48.51 0-88.94-36.32-95.43-83.11a94.87 94.87 0 0 1-0.92-13.24c0-26.49 10.84-50.58 28.3-68.04 17.47-17.47 41.56-28.31 68.06-28.31 26.49 0 50.59 10.84 68.04 28.31 17.46 17.45 28.3 41.54 28.3 68.03z"
            fill="#6F94F4"></path>
    </g><g id="g">
        <path
            d="M860.12 444.37v192.71c0 44.94-8.52 87.91-24.03 127.35C785.25 893.69 659.32 985.2 512 985.2c-53 0-96.35-43.35-96.35-96.35 0-26.49 10.84-50.59 28.3-68.04 17.47-17.47 41.55-28.31 68.06-28.31h0.06c56.31-0.01 109.5-13.39 156.55-37.14 85.66-43.23 151.02-120.8 177.99-214.63 8.8-30.6 13.51-62.93 13.51-96.36z"
            fill="#4770DC"></path>
        <path
            d="M509.71 231.52c-60.1 0.87-111.93 35.84-137.02 86.43-10.31 20.79-16.1 44.2-16.1 68.96 0 85.82 69.57 155.41 155.41 155.41 26.49 0 50.58 10.84 68.04 28.3 1.23 1.23 2.44 2.5 3.59 3.8 15.35 17.08 24.72 39.62 24.72 64.25 0 26.49-10.84 50.58-28.31 68.04-17.47 17.47-41.55 28.31-68.04 28.31-1.04 0-2.08-0.01-3.11-0.02-1.03-0.01-2.06-0.04-3.08-0.06-0.67 0-1.34-0.02-2.01-0.05-55.41-1.77-106.29-21.46-147.07-53.44-26.06-20.45-47.99-45.91-64.31-74.96-20.49-36.43-32.18-78.46-32.18-123.23 0-39.81 9.24-77.46 25.7-110.93 7.16-14.6 15.72-28.4 25.47-41.24 45.55-59.94 117.36-98.85 198.3-99.57z"
            fill="#4770DC"></path>
        <path
            d="M503.79 734.9c-46.85-1.07-91.39-11.39-131.9-29.2-84.57-37.22-151.52-107.11-184.86-193.69V512c-11.67-30.29-19.22-62.62-21.97-96.33v-0.01c0.05-0.8 0.12-1.59 0.19-2.37v-0.02a251.69 251.69 0 0 1-1.35-29.59c0-0.67 0.01-1.34 0.04-2.03 0.01-0.48 0.02-0.98 0.04-1.47 0.01-0.99 0.05-1.99 0.09-2.98 3.84-100.97 67.14-186.72 155.89-223.21 0-0.01 0.01-0.01 0.04-0.02 29.15-11.97 61.05-18.65 94.49-18.79 0.39-0.01 0.77-0.01 1.16-0.01 94.28 0 176.45 51.82 219.59 128.53a249.888 249.888 0 0 1 23.55 57.64c5.43 20.22 8.43 41.43 8.62 63.31-0.35-23.92-6.09-46.54-16.09-66.68-25.09-50.59-76.93-85.56-137.02-86.43-0.77-0.01-1.53-0.01-2.29-0.01s-1.53 0-2.29 0.01c-80.94 0.72-152.75 39.62-198.3 99.59a250.242 250.242 0 0 0-25.47 41.24c-16.46 33.47-25.7 71.12-25.7 110.93 0 44.77 11.69 86.81 32.18 123.23 16.32 29.04 38.26 54.51 64.31 74.96 40.77 31.95 91.64 51.65 147.05 53.41z"
            fill="#6F94F4"></path>
        <path
            d="M641.28 723.58c17.04-21.84 26.13-48.84 26.13-76.55V386.92c0-0.76 0-1.53-0.01-2.29-0.19-21.88-3.18-43.09-8.62-63.31a249.888 249.888 0 0 0-23.55-57.64c-43.14-76.71-125.31-128.53-219.59-128.53-0.39 0-0.77 0-1.16 0.01-33.44 0.14-65.33 6.81-94.49 18.79-0.02 0.01-0.04 0.01-0.04 0.02-88.76 36.49-152.05 122.24-155.89 223.21C169.2 189.41 323 38.8 512 38.8c55.85 0 108.64 13.15 155.41 36.53 114.26 57.1 192.71 175.18 192.71 311.59v57.45c0 33.43-4.71 65.76-13.51 96.35-26.97 93.83-92.33 171.4-177.99 214.63-47.06 23.75-100.25 37.14-156.55 37.14 62.38 0 104.69-37.48 129.21-68.91z"
            fill="#97B4FF"></path>
    </g><g id="j">
        <path
            d="M512 747.76a341.177 341.177 0 0 0 27.92-11.91c2.21-1.06 4.43-2.15 6.61-3.26 1.09-0.55 2.19-1.11 3.28-1.68 1.74-0.91 3.47-1.83 5.2-2.76 0.04-0.01 0.06-0.02 0.1-0.05 6.88-3.72 13.6-7.66 20.17-11.82 0.94-0.58 1.88-1.18 2.81-1.79 2.49-1.6 4.95-3.24 7.4-4.91 3.27-2.23 6.48-4.5 9.66-6.84 4.24-3.11 8.4-6.3 12.49-9.6a346.1 346.1 0 0 0 28.1-25.21 348.547 348.547 0 0 0 55.45-72.22h0.01c0.12-0.21 0.25-0.42 0.37-0.65a345.515 345.515 0 0 0 17.1-33.89c0.55-1.24 1.08-2.49 1.62-3.73 5.38-12.73 10.05-25.85 13.9-39.3 1.26-4.35 2.42-8.73 3.49-13.15 0.26-0.98 0.5-1.98 0.72-2.97 1.54-6.81 2.36-13.9 2.36-21.17v192.71c0 3.32-0.17 6.61-0.5 9.85-0.1 0.98-0.22 1.95-0.35 2.92-0.26 1.94-0.58 3.85-0.96 5.74-0.19 0.96-0.39 1.9-0.6 2.83-0.07 0.34-0.15 0.66-0.24 0.97-0.21 0.94-0.45 1.89-0.68 2.83a344.705 344.705 0 0 1-22.84 64.12c-55.69 118.09-175.81 199.8-315.02 199.8-53 0-96.35-43.37-96.35-96.35v-0.01c0-52.99 43.35-96.34 96.35-96.34 1.34 0 2.69-0.01 4.03-0.02 0.5 0 1.01-0.01 1.5-0.02 0.93-0.01 1.86-0.02 2.78-0.05 0.1 0 0.2-0.01 0.31-0.01 1.77-0.04 3.53-0.1 5.3-0.17 1.31-0.05 2.62-0.11 3.93-0.17h0.01c1.31-0.05 2.61-0.12 3.92-0.22 1.27-0.06 2.51-0.15 3.78-0.25 0.04 0 0.09-0.01 0.12-0.01h0.01c2.65-0.19 5.28-0.41 7.91-0.67 0.77-0.06 1.54-0.14 2.3-0.22l1.43-0.15c0.32-0.04 0.65-0.07 0.97-0.11 1.89-0.2 3.78-0.42 5.66-0.66 0.35-0.04 0.7-0.09 1.06-0.14 0.88-0.11 1.78-0.22 2.66-0.36 2.14-0.29 4.28-0.6 6.4-0.93 1.63-0.25 3.24-0.51 4.85-0.8 0.86-0.14 1.72-0.29 2.57-0.45 0.06 0 0.12-0.01 0.19-0.02 1.5-0.26 3.01-0.55 4.5-0.85 1.02-0.19 2.03-0.39 3.05-0.6 0.78-0.15 1.55-0.31 2.34-0.47 0.24-0.04 0.47-0.09 0.71-0.15 1.12-0.24 2.25-0.47 3.37-0.73 0.62-0.14 1.26-0.27 1.88-0.42 0.5-0.11 0.99-0.22 1.49-0.35 0.52-0.11 1.03-0.22 1.54-0.35 1.32-0.31 2.62-0.62 3.93-0.96 0.96-0.24 1.91-0.47 2.86-0.72l2.98-0.78c1.14-0.31 2.28-0.62 3.41-0.94 0.77-0.21 1.54-0.42 2.31-0.65 0.39-0.11 0.77-0.22 1.14-0.34 1.16-0.32 2.31-0.67 3.46-1.02 0.12-0.04 0.25-0.07 0.36-0.11 2.34-0.7 4.66-1.43 6.96-2.19 0.63-0.21 1.28-0.41 1.91-0.63 0.57-0.19 1.14-0.37 1.72-0.57 0.06-0.01 0.12-0.04 0.17-0.06 1.16-0.39 2.3-0.78 3.44-1.18a0.27 0.27 0 0 0 0.11-0.05c0.11-0.02 0.21-0.06 0.32-0.11 0.47-0.16 0.94-0.32 1.4-0.5 0.29-0.1 0.56-0.2 0.83-0.3 0.55-0.2 1.09-0.4 1.64-0.6 0.96-0.35 1.91-0.7 2.86-1.06h0.05z"
            fill="#4770DC"></path>
        <path
            d="M399.58 769.74c-2.64 0.07-5.27 0.12-7.92 0.14 35.6-0.46 68.49-12.61 95.02-32.77h0.01c5.86-4.46 11.41-9.31 16.61-14.51 14.68-14.68 26.57-32.18 34.75-51.56V446.79c0-0.83 0.01-1.65 0.04-2.47 0.01-0.6 0.02-1.18 0.06-1.77 0.01-0.32 0.02-0.65 0.05-0.98 0.06-1.39 0.17-2.77 0.31-4.14 0.02-0.25 0.05-0.47 0.07-0.71 0.02-0.27 0.05-0.53 0.09-0.8 0.04-0.46 0.1-0.91 0.16-1.36 0.11-0.9 0.24-1.78 0.37-2.65 0.11-0.71 0.22-1.42 0.36-2.13 0.27-1.55 0.58-3.08 0.94-4.6 0.1-0.45 0.21-0.9 0.32-1.34 0.1-0.44 0.22-0.87 0.34-1.32 0.27-1.08 0.57-2.15 0.9-3.21 0.16-0.56 0.34-1.09 0.51-1.64 0.09-0.27 0.17-0.55 0.26-0.81 0.26-0.78 0.52-1.55 0.81-2.32 0.14-0.44 0.3-0.87 0.47-1.31 0.19-0.51 0.39-1.02 0.58-1.53 0.3-0.78 0.62-1.57 0.96-2.34 0.3-0.72 0.61-1.43 0.93-2.14 0.27-0.6 0.55-1.18 0.83-1.77 0.16-0.34 0.32-0.67 0.48-0.99 0.32-0.67 0.66-1.33 1.01-1.99 0.31-0.6 0.62-1.19 0.96-1.79 0.73-1.36 1.52-2.7 2.32-4 0.93-1.52 1.9-3 2.91-4.45 0.27-0.4 0.55-0.78 0.82-1.17 0.26-0.4 0.55-0.78 0.85-1.17 0.57-0.77 1.14-1.53 1.73-2.29l0.9-1.12 0.91-1.12c0.61-0.73 1.23-1.45 1.86-2.18 0.63-0.71 1.27-1.42 1.93-2.11 0.32-0.35 0.65-0.7 0.98-1.04 0.32-0.34 0.66-0.68 0.99-1.02l0.82-0.82c1.18-1.16 2.37-2.29 3.61-3.37 0.62-0.56 1.26-1.11 1.89-1.64 0.73-0.61 1.47-1.22 2.21-1.82 0.37-0.3 0.75-0.58 1.12-0.87 0.37-0.3 0.75-0.58 1.12-0.86 0.55-0.41 1.11-0.82 1.67-1.22 0.39-0.29 0.78-0.56 1.18-0.82 0.5-0.36 1.01-0.71 1.52-1.04 0.5-0.34 0.99-0.66 1.5-0.98a84.735 84.735 0 0 1 4.61-2.76c0.27-0.17 0.56-0.32 0.83-0.47s0.55-0.3 0.83-0.46c0.42-0.24 0.86-0.46 1.28-0.67 0.42-0.22 0.85-0.44 1.28-0.66 0.21-0.11 0.44-0.22 0.65-0.32 0.21-0.1 0.44-0.2 0.65-0.31 0.44-0.21 0.87-0.42 1.32-0.62 0.83-0.39 1.67-0.76 2.51-1.12 0.17-0.09 0.35-0.16 0.52-0.22 0.52-0.22 1.04-0.45 1.57-0.65 0.47-0.2 0.94-0.39 1.42-0.55 0.61-0.24 1.22-0.47 1.84-0.68 0.26-0.1 0.51-0.2 0.77-0.27 0.3-0.11 0.6-0.21 0.9-0.31 0.1-0.04 0.2-0.07 0.3-0.11 0.29-0.1 0.57-0.19 0.86-0.27 0.09-0.04 0.16-0.06 0.25-0.07 0.77-0.25 1.55-0.48 2.32-0.72 1.6-0.47 3.22-0.91 4.85-1.29a24 24 0 0 1 1.22-0.27c0.71-0.16 1.4-0.31 2.13-0.46 0.61-0.12 1.22-0.24 1.83-0.34 0.53-0.11 1.07-0.2 1.6-0.27 1.39-0.24 2.8-0.44 4.2-0.58 0.56-0.06 1.09-0.14 1.65-0.19a90.543 90.543 0 0 1 7.03-0.44c0.82-0.02 1.64-0.04 2.47-0.04a95.296 95.296 0 0 1 30.8 5.08c1.49 0.51 2.97 1.06 4.43 1.63l4.31 1.83c0.01 0 0.01 0.01 0.01 0.01 1.42 0.65 2.82 1.32 4.2 2.03l4.09 2.24 3.57 2.15 2.35 1.54 4.89 3.54c0.32 0.25 0.65 0.5 0.96 0.75l5.07 4.3 1.45 1.36 1.9 1.84c0.34 0.34 0.66 0.67 0.98 1.01s0.65 0.68 0.97 1.02c1.32 1.37 2.56 2.78 3.78 4.23 0.36 0.42 0.71 0.86 1.06 1.29 0.63 0.77 1.24 1.54 1.83 2.32 0.32 0.41 0.63 0.82 0.93 1.24 0.66 0.87 1.29 1.77 1.9 2.66 0.3 0.44 0.58 0.87 0.87 1.31 1.43 2.14 2.77 4.34 4 6.6 0.3 0.52 0.58 1.06 0.87 1.59 0.27 0.52 0.55 1.04 0.81 1.57 0.53 1.04 1.04 2.11 1.54 3.18 0.25 0.53 0.48 1.07 0.72 1.62 0.17 0.37 0.34 0.76 0.48 1.13 0.02 0.01 0.02 0.04 0.02 0.05 0.04 0.06 0.06 0.11 0.07 0.17 0.12 0.29 0.24 0.56 0.35 0.85 0.04 0.06 0.06 0.12 0.07 0.2 0.2 0.47 0.39 0.96 0.57 1.43 0.57 1.44 1.09 2.9 1.58 4.38 0.3 0.9 0.58 1.8 0.86 2.71 0.16 0.53 0.32 1.07 0.47 1.62 0.15 0.52 0.3 1.06 0.44 1.58 0.14 0.55 0.29 1.11 0.41 1.67 0.12 0.48 0.24 0.98 0.35 1.48 0.1 0.42 0.2 0.85 0.29 1.28 0.04 0.17 0.07 0.35 0.11 0.51 0.01 0.04 0.01 0.09 0.02 0.12 0.04 0.21 0.09 0.42 0.12 0.65 0.42 2.1 0.76 4.21 1.03 6.37 0.1 0.68 0.17 1.38 0.25 2.08 0.04 0.39 0.07 0.77 0.11 1.17a95.085 95.085 0 0 1 0.43 8.98v34.05c0 7.27-0.82 14.36-2.36 21.17-0.22 0.99-0.46 1.99-0.72 2.97-1.07 4.43-2.24 8.8-3.49 13.15-3.85 13.45-8.52 26.57-13.9 39.3h-0.01c-0.52 1.24-1.06 2.49-1.6 3.73a343.315 343.315 0 0 1-17.1 33.89c-0.12 0.22-0.25 0.44-0.39 0.65a348.547 348.547 0 0 1-55.45 72.22 346.1 346.1 0 0 1-28.1 25.21 362.8 362.8 0 0 1-12.49 9.6c-3.18 2.34-6.39 4.61-9.66 6.84a326.82 326.82 0 0 1-7.4 4.91c-0.93 0.61-1.86 1.21-2.81 1.79-6.56 4.15-13.29 8.09-20.17 11.81-0.04 0.02-0.06 0.04-0.1 0.05v0.01c-1.73 0.93-3.46 1.85-5.2 2.76-1.09 0.57-2.19 1.13-3.28 1.68-2.19 1.11-4.4 2.19-6.61 3.26-5.55 2.66-11.18 5.17-16.88 7.55-3.64 1.52-7.34 2.97-11.04 4.36h-0.01c-0.94 0.36-1.9 0.71-2.86 1.06-0.55 0.2-1.09 0.4-1.64 0.6-0.27 0.1-0.55 0.2-0.83 0.3-0.46 0.17-0.93 0.34-1.4 0.5-0.11 0.05-0.21 0.09-0.32 0.11-1.18 0.42-2.36 0.83-3.56 1.23-0.05 0.02-0.11 0.05-0.17 0.06-0.57 0.2-1.14 0.39-1.72 0.57-0.63 0.22-1.28 0.42-1.91 0.63-2.3 0.76-4.62 1.49-6.96 2.19-0.11 0.04-0.24 0.07-0.36 0.11-1.14 0.35-2.3 0.7-3.46 1.02-1.14 0.34-2.3 0.66-3.46 0.98-4.86 1.36-9.77 2.61-14.72 3.75-0.5 0.12-0.99 0.24-1.49 0.35-0.62 0.15-1.26 0.29-1.88 0.42-1.12 0.26-2.25 0.5-3.37 0.73-0.24 0.06-0.47 0.11-0.71 0.15-0.78 0.16-1.55 0.32-2.34 0.47-1.02 0.21-2.03 0.41-3.05 0.6-1.49 0.29-3 0.57-4.5 0.85-0.06 0.01-0.12 0.02-0.19 0.02-0.86 0.16-1.72 0.31-2.57 0.45-0.65 0.11-1.29 0.21-1.95 0.32-0.97 0.16-1.93 0.32-2.9 0.47-2.13 0.34-4.26 0.65-6.4 0.93-2.08 0.29-4.15 0.55-6.24 0.8-1.04 0.12-2.09 0.25-3.13 0.36-0.32 0.04-0.65 0.07-0.97 0.11l-1.43 0.15c-0.76 0.09-1.53 0.16-2.3 0.22-2.62 0.25-5.26 0.47-7.91 0.67h-0.01c-0.04 0-0.09 0.01-0.12 0.01-1.26 0.09-2.51 0.16-3.78 0.25-2.61 0.16-5.22 0.29-7.86 0.4-1.26 0.05-2.58 0.09-3.89 0.12zM730.77 157.73v0.01c0 4.49-0.31 8.91-0.92 13.24-6.5 46.78-46.93 83.11-95.43 83.11-1.52 0-3.02-0.04-4.51-0.11h-0.01c-38.08-1.78-70.54-25.92-84.51-59.52v-0.01a94.068 94.068 0 0 1-6.4-23.47 94.87 94.87 0 0 1-0.92-13.24v-0.01c0-52.99 43.35-96.34 96.35-96.34 26.49 0 50.58 10.84 68.04 28.3 17.47 17.46 28.31 41.54 28.31 68.04z"
            fill="#6F94F4"></path>
    </g><g id="k">
        <path
            d="M241.27 610.79c55.14 36.9 121.41 58.47 192.71 58.6V824.8c0 53-43.35 96.35-96.35 96.35-9.8 0-19.26-1.48-28.19-4.24-39.35-12.12-68.17-48.91-68.17-92.11V610.79z"
            fill="#4770DC"></path>
        <path
            d="M754.43 253.23c17.46 17.46 28.3 41.55 28.3 68.04 0 93.25-36.66 177.93-96.35 240.41-3.69 3.88-7.47 7.66-11.35 11.35 3.88 3.69 7.66 7.47 11.35 11.35 59.69 62.49 96.35 147.17 96.35 240.41 0 26.49-10.84 50.59-28.3 68.06-17.47 17.46-41.56 28.3-68.06 28.3-52.99 0-96.35-43.35-96.35-96.35 0-85.82-69.57-155.41-155.41-155.41h-0.63c-71.3-0.12-137.57-21.7-192.71-58.6V199.2c0-53 43.37-96.35 96.35-96.35 26.51 0 50.59 10.84 68.06 28.3a96.665 96.665 0 0 1 16.78 22.53 95.488 95.488 0 0 1 11.51 45.53v277.48h0.63c85.84 0 155.41-69.57 155.41-155.41 0-26.49 10.84-50.59 28.31-68.04 17.46-17.47 41.55-28.31 68.04-28.31 26.51-0.01 50.61 10.83 68.07 28.3z"
            fill="#6F94F4"></path>
    </g><g id="l">
        <path
            d="M415.65 673.55c0 53 43.35 96.35 96.35 96.35 26.49 0 50.59 10.84 68.04 28.31 17.47 17.47 28.31 41.55 28.31 68.04 0 26.51-10.84 50.59-28.31 68.06-17.46 17.46-41.55 28.3-68.04 28.3-53 0-96.35-43.35-96.35-96.35V673.55z"
            fill="#4770DC"></path>
        <path
            d="M608.35 157.74v708.52c0-26.49-10.84-50.58-28.31-68.04-17.46-17.47-41.55-28.31-68.04-28.31-53 0-96.35-43.35-96.35-96.35V157.74c0-52.99 43.35-96.35 96.35-96.35 26.49 0 50.59 10.84 68.04 28.31 17.47 17.46 28.31 41.55 28.31 68.04z"
            fill="#6F94F4"></path>
    </g><g id="u">
        <path
            d="M356.6 514.01c0.25 45.32 9.16 88.58 25.16 128.22 39.77 98.54 123.35 174.71 226.59 204.37-30.6 8.8-62.92 13.51-96.35 13.51-55.85 0-108.64-13.15-155.41-36.53C242.33 766.49 163.88 648.41 163.88 512V260.24c0-22.4 7.75-43.08 20.71-59.49v-0.01c17.68-22.4 45.06-36.85 75.64-36.85 26.49 0 50.59 10.84 68.06 28.31a97.143 97.143 0 0 1 13.12 16.29c9.6 14.97 15.18 32.75 15.18 51.76V512c0 0.67 0 1.34 0.01 2.01z"
            fill="#97B4FF"></path>
        <path
            d="M846.6 415.65c8.8-30.6 13.51-62.92 13.51-96.35V512c0 136.41-78.45 254.49-192.71 311.59a344.091 344.091 0 0 1-59.06 23.01C505.1 816.94 421.52 740.77 381.75 642.23c-16-39.64-24.92-82.9-25.16-128.22 1.07 84.23 69.16 152.31 153.38 153.38 0.67 0.01 1.34 0.01 2.01 0.01 0.67 0 1.34 0 2.01-0.01 55.11-0.31 107.18-13.43 153.4-36.52 86.28-43.09 152.12-120.96 179.21-215.22z"
            fill="#6F94F4"></path>
        <path
            d="M831.82 192.19c2.69 2.69 5.21 5.53 7.57 8.52 12.97 16.41 20.73 37.11 20.73 59.53v59.06c0 33.43-4.71 65.76-13.51 96.35-27.09 94.27-92.94 172.13-179.19 215.24-46.21 23.09-98.28 36.2-153.4 36.52 84.9-1.08 153.4-70.23 153.4-155.4V260.24c0-19.01 5.58-36.78 15.19-51.75 13.65-21.31 35.47-36.96 60.95-42.46 6.53-1.4 13.29-2.15 20.22-2.15 22.42 0 43.1 7.76 59.53 20.73 2.97 2.36 5.81 4.88 8.51 7.58z"
            fill="#4770DC"></path>
    </g><g id="n">
        <path
            d="M846.6 608.35c8.8 30.6 13.51 62.92 13.51 96.35v59.06c0 22.42-7.76 43.12-20.73 59.53a97.312 97.312 0 0 1-16.1 16.1c-16.42 12.97-37.11 20.73-59.53 20.73-6.93 0-13.7-0.75-20.22-2.15-25.47-5.5-47.28-21.14-60.96-42.45-9.6-14.97-15.18-32.75-15.18-51.76V512c0-85.16-68.49-154.32-153.4-155.4 55.11 0.31 107.18 13.43 153.4 36.52 86.28 43.1 152.12 120.97 179.21 215.23z"
            fill="#4770DC"></path>
        <path
            d="M608.35 177.4c-103.24 29.66-186.82 105.83-226.59 204.37-16 39.64-24.92 82.9-25.16 128.22-0.01 0.67-0.01 1.34-0.01 2.01v251.76c0 19.01-5.58 36.79-15.18 51.76-17.17 26.77-47.18 44.6-81.17 44.6-30.57 0-57.95-14.43-75.63-36.83-12.97-16.41-20.73-37.11-20.73-59.53V512c0-136.41 78.45-254.49 192.71-311.59 46.77-23.37 99.56-36.53 155.41-36.53 33.43 0 65.76 4.71 96.35 13.52z"
            fill="#97B4FF"></path>
        <path
            d="M860.12 512v192.71c0-33.43-4.71-65.76-13.51-96.35-27.09-94.27-92.94-172.13-179.19-215.24-46.21-23.09-98.28-36.2-153.4-36.52-0.67-0.01-1.34-0.01-2.01-0.01-0.67 0-1.34 0-2.01 0.01-84.23 1.07-152.31 69.15-153.38 153.38 0.25-45.32 9.16-88.58 25.16-128.22 39.77-98.54 123.35-174.71 226.59-204.37a345.233 345.233 0 0 1 59.06 23.01C781.67 257.51 860.12 375.59 860.12 512z"
            fill="#6F94F4"></path>
    </g><g id="v">
        <path
            d="M846.6 415.65c8.8-30.6 13.51-62.92 13.51-96.35V512c0 55.85-13.15 108.64-36.53 155.41-31.16 62.34-80.47 114.02-141 148.11-50.42 28.4-108.61 44.6-170.59 44.6H260.24c-53 0-96.35-43.35-96.35-96.35V260.24c0-22.42 7.76-43.1 20.73-59.53 17.68-22.39 45.06-36.83 75.63-36.83 26.49 0 50.59 10.84 68.04 28.31a97.118 97.118 0 0 1 13.12 16.3c9.61 14.97 15.19 32.74 15.19 51.75v407.17H512c0.67 0 1.34 0 2.01-0.01 55.11-0.31 107.18-13.43 153.4-36.52 86.26-43.1 152.1-120.97 179.19-215.23z"
            fill="#6F94F4"></path>
        <path
            d="M860.12 260.24v59.06c0 33.43-4.71 65.76-13.51 96.35-27.09 94.27-92.94 172.13-179.19 215.24-46.21 23.09-98.28 36.2-153.4 36.52 84.89-1.08 153.4-70.23 153.4-155.4V260.24c0-19.01 5.58-36.78 15.18-51.76 17.17-26.77 47.19-44.6 81.17-44.6 26.49 0 50.59 10.84 68.04 28.31 2.7 2.7 5.23 5.55 7.6 8.54 12.95 16.41 20.71 37.1 20.71 59.51z"
            fill="#4770DC"></path>
    </g><g id="t">
        <path
            d="M676.41 762.6c17.46 17.47 28.3 41.55 28.3 68.04 0 26.51-10.84 50.59-28.3 68.06-17.47 17.46-41.55 28.3-68.06 28.3-0.67 0-1.34 0-2.01-0.01-84.89-1.08-153.4-70.23-153.4-155.4V578.88c0 36.39 12.51 69.87 33.47 96.35 28.46 35.97 72.51 59.06 121.94 59.06 26.51 0 50.59 10.84 68.06 28.31z"
            fill="#4770DC"></path>
        <path
            d="M452.94 771.59c0 85.16 68.5 154.32 153.4 155.4-55.11-0.31-107.18-13.43-153.4-36.52-114.26-57.1-192.71-175.18-192.71-311.59V193.36c0-53 43.37-96.35 96.35-96.35 53 0 96.35 43.35 96.35 96.35v37.4H667.4c22.42 0 43.1 7.76 59.53 20.73 22.39 17.68 36.83 45.06 36.83 75.63 0 26.51-10.84 50.59-28.3 68.06-17.47 17.46-41.55 28.3-68.06 28.3H452.94v348.11z"
            fill="#6F94F4"></path>
    </g><g id="z">
        <path
            d="M509.99 608.37c-48.61 0.62-91.85 23.56-119.94 59.04h373.72c53 0 96.35 43.35 96.35 96.35 0 24.54-9.3 47.01-24.54 64.07a93.851 93.851 0 0 1-3.75 3.98c-17.47 17.47-41.55 28.31-68.06 28.31H260.24c-28.46 0-54.14-12.51-71.81-32.3 26.13-65.66 71.68-121.49 129.54-160.41 54.92-36.95 120.94-58.65 192.02-59.04z"
            fill="#4770DC"></path>
        <path
            d="M317.96 667.41c-57.86 38.91-103.4 94.75-129.54 160.41-15.24-17.06-24.54-39.52-24.54-64.05 0-99.01 41.34-188.38 107.71-251.76 62.49-59.69 147.17-96.35 240.41-96.35 0.67 0 1.34 0 2.01-0.01 71.08-0.4 137.1-22.09 192.02-59.04 57.86-38.91 103.4-94.75 129.54-160.42 15.24 17.06 24.54 39.52 24.54 64.07 0 99.01-41.34 188.38-107.71 251.76-62.49 59.69-147.17 96.35-240.41 96.35-0.67 0-1.34 0-2.01 0.01-71.07 0.38-137.09 22.08-192.02 59.03z"
            fill="#6F94F4"></path>
        <path
            d="M835.58 196.17c-26.13 65.67-71.68 121.51-129.54 160.42-54.93 36.95-120.95 58.65-192.02 59.04 48.61-0.62 91.85-23.56 119.93-59.04H260.24c-52.99 0-96.35-43.37-96.35-96.35 0-24.54 9.3-47.01 24.54-64.07 17.67-19.78 43.35-32.29 71.81-32.29h503.53c28.45 0 54.14 12.51 71.81 32.29z"
            fill="#97B4FF"></path>
    </g><g id="r">
        <path
            d="M608.35 205.92c139.04 0 251.76 112.72 251.76 251.76 0 26.49-10.84 50.59-28.31 68.06-17.47 17.46-41.55 28.3-68.04 28.3-53 0-96.35-43.35-96.35-96.35 0-85.84-69.59-155.41-155.41-155.41-85.08 0-154.18 68.34-155.4 153.12 1.23-138 113.46-249.48 251.75-249.48z"
            fill="#4770DC"></path>
        <path
            d="M860.12 457.68c0-139.05-112.73-251.76-251.76-251.76-138.29 0-250.52 111.48-251.75 249.48-0.01 0.76-0.01 1.53-0.01 2.29v360.4c0 53-43.37 96.35-96.35 96.35-53 0-96.35-43.35-96.35-96.35v-360.4c0-136.41 78.45-254.49 192.71-311.59 46.77-23.37 99.56-36.53 155.41-36.53 192.24-0.01 348.1 155.85 348.1 348.11z"
            fill="#6F94F4"></path>
    </g><g id="x">
        <path
            d="M721.08 538.59c80.74 40.49 136.67 123.12 138.96 219.04v0.17c0.02 0.99 0.04 1.98 0.05 2.97 0.02 0.99 0.02 1.99 0.02 2.98 0 26.49-10.84 50.59-28.31 68.04-17.47 17.47-41.55 28.31-68.04 28.31-26.51 0-50.59-10.84-68.06-28.31-17.46-17.46-28.3-41.55-28.3-68.04 0-85.84-69.59-155.41-155.41-155.41-85.08 0-154.18 68.34-155.4 153.12 0.56-63.46 24.6-121.32 63.85-165.29 46.11-51.66 113.2-84.18 187.9-84.18 40.55 0.01 78.83 9.58 112.74 26.6z"
            fill="#4770DC"></path>
        <path
            d="M860.04 757.63c-2.29-95.92-58.22-178.55-138.96-219.04C687.17 521.57 648.89 512 608.35 512c-74.7 0-141.78 32.52-187.9 84.18-39.25 43.97-63.3 101.84-63.85 165.29-0.01 0.76-0.01 1.53-0.01 2.29 0 26.49-10.84 50.59-28.31 68.04-17.47 17.47-41.55 28.31-68.04 28.31-26.51 0-50.59-10.84-68.06-28.31-17.46-17.46-28.3-41.55-28.3-68.04 0-99.01 41.34-188.38 107.71-251.76-65-62.08-105.95-149.07-107.63-245.63v-0.17c-0.01-0.99-0.02-1.98-0.05-2.97-0.02-0.99-0.02-1.99-0.02-2.98 0-53 43.35-96.35 96.35-96.35 26.49 0 50.58 10.84 68.04 28.3 17.47 17.47 28.31 41.56 28.31 68.06 0 85.82 69.57 155.41 155.41 155.41 85.07 0 154.17-68.36 155.4-153.12 0.01-0.77 0.01-1.53 0.01-2.29 0-53 43.35-96.35 96.35-96.35 26.49 0 50.58 10.84 68.04 28.3 17.47 17.47 28.31 41.56 28.31 68.06 0 99.01-41.34 188.37-107.71 251.76 65.01 62.05 105.97 149.04 107.64 245.6z"
            fill="#6F94F4"></path>
    </g><g id="o">
        <path
            d="M608.35 260.24c139.04 0 251.76 112.72 251.76 251.76S747.39 763.76 608.35 763.76c-138.29 0-250.52-111.48-251.75-249.48 1.22 84.78 70.32 153.12 155.4 153.12 85.82 0 155.41-69.57 155.41-155.41S597.82 356.59 512 356.59c-85.08 0-154.18 68.34-155.4 153.12 1.23-137.99 113.46-249.47 251.75-249.47z"
            fill="#4770DC"></path>
        <path
            d="M860.12 512c0-139.05-112.73-251.76-251.76-251.76-138.29 0-250.52 111.48-251.75 249.48-0.01 0.76-0.01 1.53-0.01 2.29s0 1.53 0.01 2.29c1.23 137.99 113.46 249.48 251.75 249.48 139.03-0.02 251.76-112.73 251.76-251.78 0 192.26-155.87 348.12-348.12 348.12-192.26 0-348.12-155.86-348.12-348.12S319.74 163.88 512 163.88c192.25 0 348.12 155.86 348.12 348.12z"
            fill="#6F94F4"></path>
    </g><g id="y">
        <path
            d="M509.99 426.24c-55.11-0.31-107.18-13.43-153.4-36.52a346.163 346.163 0 0 1-41.96-24.8 348.394 348.394 0 0 1-53.67-45.63c-26.94-28.04-49.22-60.56-65.62-96.35a344.44 344.44 0 0 1-17.94-48.45c-0.76-2.62-1.49-5.27-2.18-7.92 2.71-5.06 5.86-9.86 9.4-14.34 17.68-22.38 45.04-36.8 75.62-36.8 3.79 0 7.55 0.22 11.23 0.67 22.03 2.57 41.86 12.67 56.82 27.63a96.99 96.99 0 0 1 20.09 29.24 95.437 95.437 0 0 1 8.22 38.82v59.05c-0.01 85.15 68.48 154.32 153.39 155.4z"
            fill="#6F94F4"></path>
        <path
            d="M356.59 582.43c-70.98-35.47-128.13-94.48-161.25-166.79a345.197 345.197 0 0 1-28.11-96.35v-0.02c-2.2-15.83-3.34-31.99-3.34-48.43v-59.06c0-16.31 4.1-31.72 11.34-45.22 0.68 2.65 1.42 5.3 2.18 7.92 4.8 16.7 10.8 32.88 17.94 48.45 16.4 35.79 38.68 68.32 65.62 96.35a348.394 348.394 0 0 0 53.67 45.63 344.87 344.87 0 0 0 41.96 24.8c46.21 23.09 98.28 36.2 153.4 36.52 0.67 0.01 1.34 0.01 2.01 0.01 26.49 0 50.59 10.84 68.04 28.3 17.47 17.47 28.31 41.55 28.31 68.06 0 26.49-10.84 50.58-28.31 68.04-17.46 17.47-41.55 28.31-68.04 28.31-55.85 0-108.61-13.15-155.39-36.52-0.01-0.02-0.01-0.04-0.02-0.06v0.06z"
            fill="#97B4FF"></path>
        <path
            d="M846.6 464.1c8.8-30.6 13.51-62.92 13.51-96.35v192.71c0 126.67-67.65 237.53-168.79 298.42-52.37 31.55-113.72 49.69-179.32 49.69-26.49 0-50.59-10.84-68.06-28.31-17.46-17.47-28.3-41.55-28.3-68.04 0-53 43.35-96.35 96.35-96.35 55.85 0 108.64-13.15 155.41-36.53 86.27-43.11 152.11-120.98 179.2-215.24z"
            fill="#4770DC"></path>
        <path
            d="M860.12 211.79v155.96c0 33.43-4.71 65.76-13.51 96.35-27.09 94.27-92.94 172.13-179.19 215.24-46.77 23.37-99.56 36.53-155.41 36.53 54.33 0 103.54-38.71 139.23-101.32 10.68-18.73 16.18-39.96 16.18-61.52V211.81c0-13.79 2.93-26.92 8.21-38.8 13.55-30.55 42.55-52.86 76.92-56.88 3.68-0.45 7.43-0.67 11.23-0.67 26.49 0 50.59 10.84 68.04 28.3a98.003 98.003 0 0 1 16.97 22.84c7.23 13.47 11.33 28.87 11.33 45.19z"
            fill="#6F94F4"></path>
    </g><g id="s">
        <path
            d="M633.95 608.35h19.94a345.233 345.233 0 0 1-23.01 59.06C603.62 721.98 562.44 768.36 512 801.96c-29.29 19.51-61.72 34.7-96.35 44.65-30.6 8.8-62.92 13.51-96.35 13.51h-59.06c-22.42 0-43.1-7.76-59.53-20.73-22.39-17.68-36.83-45.06-36.83-75.63 0-33.98 17.84-64 44.61-81.16 14.97-9.61 32.74-15.19 51.75-15.19H512c49.45 0 93.48-23.09 121.95-59.06z"
            fill="#4770DC"></path>
        <path
            d="M860.12 512c0 55.85-13.15 108.64-36.53 155.41-43.1 86.26-120.97 152.1-215.24 179.19-30.6 8.8-62.92 13.51-96.35 13.51H319.29c33.43 0 65.76-4.71 96.35-13.51 34.64-9.95 67.06-25.14 96.35-44.65 50.44-33.59 91.62-79.98 118.88-134.55a344.091 344.091 0 0 0 23.01-59.06H260.24c-52.99 0-96.35-43.35-96.35-96.35 0-55.85 13.15-108.64 36.53-155.41 43.1-86.26 120.97-152.1 215.24-179.19 30.6-8.8 62.92-13.51 96.35-13.51h192.71c-33.43 0-65.76 4.71-96.35 13.51-34.64 9.95-67.06 25.14-96.35 44.65-50.44 33.59-91.62 79.98-118.88 134.55a344.091 344.091 0 0 0-23.01 59.06h393.66c52.98 0 96.33 43.36 96.33 96.35z"
            fill="#6F94F4"></path>
        <path
            d="M860.12 260.24c0 26.49-10.84 50.59-28.3 68.06a97.62 97.62 0 0 1-16.3 13.12c-14.97 9.6-32.75 15.18-51.76 15.18H512c-49.43 0-93.48 23.09-121.95 59.06H370.1a345.233 345.233 0 0 1 23.01-59.06c27.27-54.57 68.44-100.95 118.88-134.55 29.29-19.51 61.72-34.7 96.35-44.65 30.6-8.8 62.92-13.51 96.35-13.51h59.06c22.42 0 43.1 7.76 59.53 20.73 22.4 17.67 36.84 45.04 36.84 75.62z"
            fill="#97B4FF"></path>
    </g><g id="p">
        <path
            d="M514.29 257.53c137.98 1.23 249.48 113.46 249.48 251.75 0 44.76-11.69 86.81-32.16 123.22-41.8 74.32-120.23 125.29-210.8 128.39-1.01 0.04-2.01 0.06-3.02 0.07-0.66 0.01-1.32 0.02-1.96 0.04-1.27 0.02-2.55 0.04-3.82 0.04-53 0-96.35-43.35-96.35-96.35 0-24.63 9.36-47.18 24.7-64.25 1.17-1.29 2.36-2.56 3.59-3.79 17.47-17.47 41.56-28.31 68.06-28.31 85.82 0 155.41-69.57 155.41-155.41-0.01-85.07-68.37-154.17-153.13-155.4z"
            fill="#4770DC"></path>
        <path
            d="M608.35 161.16c139.04 0 251.76 112.72 251.76 251.76 0 1.27-0.01 2.55-0.04 3.82-0.01 0.65-0.02 1.31-0.04 1.96-0.01 1.01-0.04 2.01-0.07 3.02-4.58 185.27-153.9 334.58-339.16 339.17 90.57-3.11 169-54.07 210.8-128.39 20.48-36.42 32.16-78.46 32.16-123.22 0-138.29-111.5-250.52-249.48-251.75-0.77-0.01-1.53-0.01-2.29-0.01-1.34 0-2.67 0.01-4.02 0.05-82.64 2.1-149.26 68.72-151.34 151.34 0.66-43.27 12.25-83.88 32.13-119.22 43.14-76.71 125.32-128.53 219.59-128.53z"
            fill="#6F94F4"></path>
        <path
            d="M512 64.8c192.26 0 348.12 155.86 348.12 348.12 0-139.05-112.73-251.76-251.76-251.76-94.28 0-176.46 51.82-219.59 128.53-19.88 35.33-31.47 75.95-32.13 119.22-0.04 1.34-0.05 2.67-0.05 4.02v449.92c0 53-43.37 96.35-96.35 96.35-53 0-96.35-43.35-96.35-96.35V412.92c0-136.41 78.45-254.49 192.71-311.59C403.36 77.96 456.15 64.8 512 64.8z"
            fill="#97B4FF"></path>
    </g><g id="w">
        <path
            d="M919.17 356.59v-96.35c0-40.92-25.85-76.09-62.03-89.99-10.67-4.12-22.25-6.37-34.33-6.37-38.93 0-72.64 23.39-87.81 56.81a95.664 95.664 0 0 0-8.54 39.55v383.94c89.48-36.78 158.01-114.11 182.71-209.12 0.07-0.26 0.14-0.51 0.2-0.76 6.41-24.85 9.8-50.88 9.8-77.71z"
            fill="#4770DC"></path>
        <path
            d="M608.35 501.32V260.24c0-21.91-7.41-42.18-19.87-58.42-17.64-23.03-45.4-37.93-76.49-37.93-53 0-96.35 43.35-96.35 96.35v241.08c0 53 43.35 96.35 96.35 96.35 26.49 0 50.58-10.84 68.04-28.3 16.44-16.44 27-38.73 28.2-63.38v-0.04c0.09-1.52 0.12-3.08 0.12-4.63z"
            fill="#6F94F4"></path>
        <path
            d="M726.47 807.96c35.57-18.87 67.49-42.31 94.63-69.34-27.35 25.69-59.37 46.47-94.63 60.96-36.42 14.98-76.3 23.24-118.11 23.24-171 0-309.73-138.07-310.81-308.81-0.01-0.67-0.01-1.34-0.01-2.01V260.24c0-14.07-3.06-27.46-8.54-39.55-15.17-33.42-48.9-56.81-87.81-56.81-53 0-96.35 43.35-96.35 96.35V512c0 124.97 77.02 234.57 192.71 295.96 62.28 33.07 135.77 52.16 214.47 52.16s152.17-19.09 214.45-52.16z"
            fill="#97B4FF"></path>
        <path
            d="M726.47 799.58c35.26-14.48 67.27-35.27 94.63-60.96 57.24-57.03 93.27-130.06 97.63-210.19 0.07-1.27 0.14-2.54 0.19-3.82 0.05-1.33 0.1-2.67 0.14-4.02 0.04-1.37 0.06-2.74 0.09-4.1 0.02-1.5 0.04-3 0.04-4.5v-155.4c0 26.83-3.39 52.86-9.8 77.71-0.06 0.25-0.12 0.5-0.2 0.76-24.7 95.01-93.23 172.34-182.71 209.12-36.42 14.98-76.3 23.24-118.11 23.24H452.94c-85.16 0-154.32-68.49-155.4-153.4 1.08 170.74 139.81 308.81 310.81 308.81 41.82-0.01 81.7-8.27 118.12-23.25z"
            fill="#6F94F4"></path>
    </g><g id="m">
        <path
            d="M919.17 667.41v96.35c0 40.92-25.85 76.09-62.03 89.99-10.67 4.12-22.25 6.37-34.33 6.37-38.93 0-72.64-23.39-87.81-56.81a95.664 95.664 0 0 1-8.54-39.55V379.83c89.48 36.78 158.01 114.11 182.71 209.12 0.07 0.26 0.14 0.51 0.2 0.76 6.41 24.84 9.8 50.87 9.8 77.7z"
            fill="#4770DC"></path>
        <path
            d="M608.35 522.68v241.08c0 21.91-7.41 42.18-19.87 58.42-17.64 23.03-45.4 37.93-76.49 37.93-53 0-96.35-43.35-96.35-96.35V522.68c0-53 43.35-96.35 96.35-96.35 26.49 0 50.58 10.84 68.04 28.3 16.44 16.44 27 38.73 28.2 63.38v0.04c0.09 1.52 0.12 3.08 0.12 4.63z"
            fill="#6F94F4"></path>
        <path
            d="M726.47 216.04c35.57 18.87 67.49 42.31 94.63 69.34-27.35-25.69-59.37-46.47-94.63-60.96-36.42-14.98-76.3-23.24-118.11-23.24-171 0-309.73 138.07-310.81 308.81-0.01 0.67-0.01 1.34-0.01 2.01v251.76c0 14.07-3.06 27.46-8.54 39.55-15.17 33.42-48.9 56.81-87.81 56.81-53 0-96.35-43.35-96.35-96.35V512c0-124.97 77.02-234.57 192.71-295.96 62.28-33.07 135.77-52.16 214.47-52.16s152.17 19.09 214.45 52.16z"
            fill="#97B4FF"></path>
        <path
            d="M726.47 224.42c35.26 14.48 67.27 35.27 94.63 60.96 57.24 57.03 93.27 130.06 97.63 210.19 0.07 1.27 0.14 2.54 0.19 3.82 0.05 1.33 0.1 2.67 0.14 4.02 0.04 1.37 0.06 2.74 0.09 4.1 0.02 1.5 0.04 3 0.04 4.5v155.41c0-26.83-3.39-52.86-9.8-77.7-0.06-0.25-0.12-0.5-0.2-0.76-24.7-95.01-93.23-172.34-182.71-209.12-36.42-14.98-76.3-23.24-118.11-23.24H452.94c-85.16 0-154.32 68.49-155.4 153.4 1.08-170.74 139.81-308.81 310.81-308.81 41.82-0.01 81.7 8.25 118.12 23.23z"
            fill="#6F94F4"></path>
    </g><g id="q">
        <path
            d="M509.71 257.53c-137.98 1.23-249.48 113.46-249.48 251.75 0 44.76 11.69 86.81 32.16 123.22 41.8 74.32 120.23 125.29 210.8 128.39 1.01 0.04 2.01 0.06 3.02 0.07 0.66 0.01 1.32 0.02 1.96 0.04 1.27 0.02 2.55 0.04 3.82 0.04 53 0 96.35-43.35 96.35-96.35 0-24.63-9.36-47.18-24.7-64.25-1.17-1.29-2.36-2.56-3.59-3.79-17.47-17.47-41.56-28.31-68.06-28.31-85.82 0-155.41-69.57-155.41-155.41 0.01-85.07 68.37-154.17 153.13-155.4z"
            fill="#4770DC"></path>
        <path
            d="M415.65 161.16c-139.04 0-251.76 112.72-251.76 251.76 0 1.27 0.01 2.55 0.04 3.82 0.01 0.65 0.02 1.31 0.04 1.96 0.01 1.01 0.04 2.01 0.07 3.02 4.59 185.26 153.91 334.58 339.17 339.17-90.57-3.11-169-54.07-210.8-128.39-20.48-36.42-32.16-78.46-32.16-123.22 0-138.29 111.5-250.52 249.48-251.75 0.77-0.01 1.53-0.01 2.29-0.01 1.34 0 2.67 0.01 4.02 0.05 82.64 2.1 149.26 68.72 151.34 151.34-0.66-43.27-12.25-83.88-32.13-119.22-43.15-76.71-125.33-128.53-219.6-128.53z"
            fill="#6F94F4"></path>
        <path
            d="M512 64.8c-192.26 0-348.12 155.86-348.12 348.12 0-139.05 112.73-251.76 251.76-251.76 94.28 0 176.46 51.82 219.59 128.53 19.88 35.33 31.47 75.95 32.13 119.22 0.04 1.34 0.05 2.67 0.05 4.02v449.92c0 53 43.37 96.35 96.35 96.35 53 0 96.35-43.35 96.35-96.35V412.92c0-136.41-78.45-254.49-192.71-311.59C620.64 77.96 567.85 64.8 512 64.8z"
            fill="#97B4FF"></path>
    </g>
</svg>